<?xml version="1.0" encoding="UTF-8"?>
<svg width="220px" height="45px" viewBox="0 0 220 45" version="1.1" xmlns="http://www.w3.org/2000/svg" xmlns:xlink="http://www.w3.org/1999/xlink">
    <!-- Generator: Sketch 42 (36781) - http://www.bohemiancoding.com/sketch -->
    <title>forwardtheory-identity-ideas</title>
    <desc>Created with Sketch.</desc>
    <defs></defs>
    <g id="Page-1" stroke="none" stroke-width="1" fill="none" fill-rule="evenodd">
        <g id="Desktop-HD" transform="translate(-30.000000, -30.000000)" fill="#EC3F48">
            <g id="Header" transform="translate(30.000000, 30.000000)">
                <g id="forwardtheory-identity-ideas">
                    <polygon id="Fill-1" points="19.8912056 22.2134571 19.8912056 34.3209222 45.272004 22.2134571 17.0338403 8.79653094 17.0338403 5.64934531 51.8109661 22.2134571 17.0338403 38.824994 17.0338403 22.2134571"></polygon>
                    <polygon id="Fill-2" points="3.27009581 22.2134571 3.27009581 34.3209222 28.6508942 22.2134571 0.412730539 8.79653094 0.412730539 5.64934531 35.1898563 22.2134571 0.412730539 38.824994 0.412730539 22.2134571"></polygon>
                    <polygon id="Fill-3" points="65.8583393 0.654906188 76.258499 0.654906188 76.258499 3.5333493 68.7859641 3.5333493 68.7859641 8.07606387 74.6161836 8.07606387 74.6161836 10.9031297 68.7859641 10.9031297 68.7859641 18.5767824 65.8583393 18.5767824"></polygon>
                    <g id="Group-30" transform="translate(64.111776, 0.122954)">
                        <path d="M35.1650898,9.49284631 C35.1650898,5.90917365 32.5145509,3.1066986 28.9818164,3.1066986 C25.4477645,3.1066986 22.7967864,5.90917365 22.7967864,9.49284631 C22.7967864,13.0782754 25.4477645,15.878994 28.9818164,15.878994 C32.5145509,15.878994 35.1650898,13.0782754 35.1650898,9.49284631 M19.8182236,9.49284631 C19.8182236,4.31823553 23.9082036,0.33100998 28.9818164,0.33100998 C34.0804591,0.33100998 38.1436527,4.31823553 38.1436527,9.49284631 C38.1436527,14.6674571 34.0804591,18.6564391 28.9818164,18.6564391 C23.9082036,18.6564391 19.8182236,14.6674571 19.8182236,9.49284631" id="Fill-4"></path>
                        <path d="M52.9352495,8.28126547 C54.9547705,8.28126547 55.9388423,7.29719361 55.9388423,5.78222355 C55.9388423,4.24266267 54.9547705,3.234 52.9352495,3.234 L50.3356487,3.234 L50.3356487,8.28126547 L52.9352495,8.28126547 Z M52.0271457,10.8316846 L50.3356487,10.8316846 L50.3356487,18.4539601 L47.4062675,18.4539601 L47.4062675,0.532083832 L53.2118962,0.532083832 C56.5452695,0.532083832 58.9174052,2.67851098 58.9174052,5.68166467 C58.9174052,8.00461876 57.502994,9.84761277 55.2314172,10.5528423 L60.9369261,18.4539601 L57.4270259,18.4539601 L52.0271457,10.8316846 Z" id="Fill-6"></path>
                        <polygon id="Fill-8" points="66.4638443 0.531952096 69.4674371 0.531952096 73.001489 10.8561437 77.4440838 0.330834331 81.8866786 10.8561437 85.4189741 0.531952096 88.4489142 0.531952096 82.2638842 18.6567026 77.4440838 7.04500599 72.6225269 18.6567026"></polygon>
                        <polygon id="Fill-10" points="101.473222 15.5508383 105.712942 15.5508383 101.473222 6.48956088 95.8436806 18.4538723 92.7131816 18.4538723 101.473222 0.330878244 110.231066 18.4538723 101.473222 18.4538723"></polygon>
                        <path d="M124.315369,8.28126547 C126.33489,8.28126547 127.318962,7.29719361 127.318962,5.78222355 C127.318962,4.24266267 126.33489,3.234 124.315369,3.234 L121.715768,3.234 L121.715768,8.28126547 L124.315369,8.28126547 Z M123.407265,10.8316846 L121.715768,10.8316846 L121.715768,18.4539601 L118.786387,18.4539601 L118.786387,0.532083832 L124.592016,0.532083832 C127.925389,0.532083832 130.297525,2.67851098 130.297525,5.68166467 C130.297525,8.00461876 128.883114,9.84761277 126.611537,10.5528423 L132.317046,18.4539601 L128.807146,18.4539601 L123.407265,10.8316846 Z" id="Fill-12"></path>
                        <path d="M146.476834,15.7271896 C150.339349,15.7271896 152.887573,13.0270299 152.887573,9.49297804 C152.887573,5.96024351 150.339349,3.25832735 146.476834,3.25832735 L143.725737,3.25832735 L143.725737,15.7271896 L146.476834,15.7271896 Z M140.796355,0.531820359 L146.476834,0.531820359 C151.827533,0.531820359 155.866136,4.41892615 155.866136,9.49297804 C155.866136,14.5665908 151.827533,18.4536966 146.476834,18.4536966 L140.796355,18.4536966 L140.796355,0.531820359 Z" id="Fill-14"></path>
                        <polygon id="Fill-16" points="4.87701796 28.6509381 0.256139721 28.6509381 0.256139721 25.772495 12.4479162 25.772495 12.4479162 28.6509381 7.80464271 28.6509381 7.80464271 43.6943713 4.87701796 43.6943713"></polygon>
                        <polygon id="Fill-18" points="21.2573134 25.7726707 24.1849381 25.7726707 24.1849381 33.1938283 33.0701277 33.1938283 33.0701277 25.7726707 35.9973134 25.7726707 35.9973134 43.6945469 33.0701277 43.6945469 33.0701277 36.0208942 24.1849381 36.0208942 24.1849381 43.6945469 21.2573134 43.6945469"></polygon>
                        <polygon id="Fill-20" points="46.2951577 25.7726707 56.9227824 25.7726707 56.9227824 28.6511138 49.2245389 28.6511138 49.2245389 33.1938283 55.4078124 33.1938283 55.4078124 36.0208942 49.2245389 36.0208942 49.2245389 40.8182994 56.9227824 40.8182994 56.9227824 43.6945469 46.2951577 43.6945469"></polygon>
                        <path d="M80.6484431,34.7335649 C80.6484431,31.1498922 77.9979042,28.3474172 74.4651697,28.3474172 C70.9311178,28.3474172 68.2801397,31.1498922 68.2801397,34.7335649 C68.2801397,38.318994 70.9311178,41.1197126 74.4651697,41.1197126 C77.9979042,41.1197126 80.6484431,38.318994 80.6484431,34.7335649 M65.3015768,34.7335649 C65.3015768,29.5589541 69.3915569,25.5717285 74.4651697,25.5717285 C79.5638124,25.5717285 83.627006,29.5589541 83.627006,34.7335649 C83.627006,39.9081756 79.5638124,43.8971577 74.4651697,43.8971577 C69.3915569,43.8971577 65.3015768,39.9081756 65.3015768,34.7335649" id="Fill-22"></path>
                        <path d="M98.4166707,33.521984 C100.436192,33.521984 101.42202,32.5379122 101.42202,31.0229421 C101.42202,29.4833812 100.436192,28.4747186 98.4166707,28.4747186 L95.8170699,28.4747186 L95.8170699,33.521984 L98.4166707,33.521984 Z M97.5085669,36.0724032 L95.8170699,36.0724032 L95.8170699,43.6946786 L92.8894451,43.6946786 L92.8894451,25.7728024 L98.695513,25.7728024 C102.026691,25.7728024 104.398826,27.9192295 104.398826,30.9223832 C104.398826,33.2453373 102.986172,35.0883313 100.714595,35.7935609 L106.418347,43.6946786 L102.910204,43.6946786 L97.5085669,36.0724032 Z" id="Fill-24"></path>
                        <polygon id="Fill-26" points="117.853517 36.1480639 111.264495 25.772495 114.698427 25.772495 119.31711 33.169501 123.936232 25.772495 127.394754 25.772495 120.781142 36.1480639 120.781142 43.6943713 117.853517 43.6943713"></polygon>
                        <path d="M134.202766,28.5417285 C134.467557,28.5417285 134.59622,28.3893533 134.59622,28.1974571 C134.59622,28.0125868 134.467557,27.8602116 134.202766,27.8602116 L133.681529,27.8602116 L133.681529,28.5417285 L134.202766,28.5417285 Z M133.882208,29.0642834 L133.689433,29.0642834 L133.689433,30.1954611 L133.09618,30.1954611 L133.09618,27.2981357 L134.266878,27.2981357 C134.828515,27.2981357 135.181569,27.699493 135.181569,28.1807705 C135.181569,28.5900319 134.941808,28.8947824 134.540451,29.01598 L135.422647,30.1954611 L134.7161,30.1954611 L133.882208,29.0642834 Z M136.312747,28.7511896 C136.312747,27.4430459 135.333944,26.4796128 134.074982,26.4796128 C132.822607,26.4796128 131.827996,27.4430459 131.827996,28.7511896 C131.827996,30.05099 132.822607,31.0218882 134.074982,31.0218882 C135.333944,31.0218882 136.312747,30.05099 136.312747,28.7511896 L136.312747,28.7511896 Z M131.161848,28.7511896 C131.161848,27.0895529 132.469553,25.838495 134.074982,25.838495 C135.679533,25.838495 136.986798,27.0895529 136.986798,28.7511896 C136.986798,30.4119481 135.679533,31.6634451 134.074982,31.6634451 C132.469553,31.6634451 131.161848,30.4119481 131.161848,28.7511896 L131.161848,28.7511896 Z" id="Fill-28"></path>
                    </g>
                </g>
            </g>
        </g>
    </g>
</svg>